<svg xmlns="http://www.w3.org/2000/svg"><style>:root svg:not(:target){display:none}</style><svg id="icon-vk" viewBox="0 0 29 22"><g clip-path="url(#clip0_87438_332)"><path d="M1.5 5.339c0-.855.515-1.316 1.545-1.383l3.97.025a.52.52 0 0 1 .533.377c.409 1.257.866 2.343 1.372 3.257.506.913 1.168 1.965 1.985 3.156.071.15.187.226.346.226.125 0 .223-.059.293-.176l.08-.277.027-4.35c0-.302-.075-.503-.226-.604-.151-.1-.431-.176-.84-.226-.32-.05-.48-.235-.48-.553 0-.067.01-.118.027-.151.373-1.09 1.44-1.635 3.198-1.635L14.822 3c.675 0 1.234.16 1.678.478.444.318.666.821.666 1.509v5.708c.125.084.24.126.347.126.266 0 .497-.15.692-.453 1.954-2.582 3.011-4.308 3.17-5.18 0-.017.019-.059.054-.126.125-.251.329-.47.613-.654.284-.184.533-.31.746-.377a.554.554 0 0 1 .24-.05h4.13l.266.025c.355 0 .63.16.826.478.07.1.12.21.146.327.027.117.045.234.054.352.009.117.013.184.013.2v.177c-.124.687-.44 1.42-.946 2.2-.506.78-1.15 1.622-1.931 2.528-.782.905-1.27 1.5-1.466 1.785-.16.201-.24.386-.24.553 0 .135.071.286.213.453l3.89 4.627c.213.269.32.562.32.88 0 .386-.16.705-.48.956-.32.252-.701.394-1.145.428l-.453.025h-4.05a.855.855 0 0 0-.106.012.862.862 0 0 1-.107.013c-.39 0-.755-.16-1.092-.478-.125-.134-.96-1.123-2.505-2.967a1.387 1.387 0 0 0-.373-.327c-.07.268-.164.654-.28 1.157-.115.503-.2.863-.253 1.081l-.08.427c-.177.587-.55.94-1.119 1.057l-.373.025h-2.61c-1.475 0-2.945-.637-4.41-1.911-1.466-1.275-2.784-2.922-3.957-4.942-1.172-2.02-2.264-4.372-3.277-7.054a1.916 1.916 0 0 1-.133-.73Zm16.013 6.513c-.373 0-.71-.096-1.013-.29-.302-.192-.453-.456-.453-.791V4.987c0-.336-.089-.575-.266-.717-.178-.143-.489-.214-.933-.214l-1.518.05c-.764 0-1.341.126-1.732.378.781.352 1.172.922 1.172 1.71v4.426a1.5 1.5 0 0 1-.533 1.044 1.59 1.59 0 0 1-1.066.414c-.532 0-.94-.243-1.225-.729C8.56 9.371 7.53 7.493 6.856 5.716l-.24-.654-3.544-.025c-.231 0-.36.013-.386.038-.027.025-.04.096-.04.213 0 .151.017.31.053.478l.56 1.409c1.491 3.638 3.112 6.505 4.862 8.6 1.75 2.096 3.468 3.144 5.155 3.144h2.665c.106 0 .186-.03.24-.088.053-.06.097-.172.133-.34l.053-.251.506-2.213c.142-.302.267-.503.373-.604a.975.975 0 0 1 .693-.277c.426 0 .861.243 1.305.73l2.265 2.716c.142.218.293.327.453.327h4.396c.533 0 .8-.126.8-.378a.466.466 0 0 0-.08-.251l-3.864-4.552c-.302-.352-.453-.73-.453-1.131 0-.403.142-.788.427-1.157.23-.336.679-.893 1.345-1.673a37.63 37.63 0 0 0 1.745-2.187c.498-.68.826-1.296.986-1.849l.08-.327a.371.371 0 0 1-.027-.163.574.574 0 0 0-.026-.189h-4.183c-.267.1-.48.252-.64.453l-.16.478c-.444 1.156-1.607 2.942-3.49 5.356a1.892 1.892 0 0 1-1.305.503Z" fill="#666"/></g><defs><clipPath id="clip0_87438_332"><path fill="#fff" transform="translate(.5)" d="M0 0h28v22H0z"/></clipPath></defs></svg><svg id="icon-yt" viewBox="0 0 29 22"><path d="m18.35 10.793-5.236-3.491a.655.655 0 0 0-1.014.545v6.982a.654.654 0 0 0 1.014.546l5.237-3.491a.655.655 0 0 0 0-1.091Zm-4.94 2.814V9.07l3.403 2.27-3.404 2.268Zm12.48-8.563a2.4 2.4 0 0 0-1.452-1.637C20.718 1.978 14.751 2 14.5 2c-.25 0-6.218-.022-9.938 1.407A2.4 2.4 0 0 0 3.11 5.044C2.827 6.113 2.5 8.076 2.5 11.338c0 3.262.327 5.226.61 6.295a2.4 2.4 0 0 0 1.452 1.636c3.72 1.43 9.687 1.407 9.938 1.407h.076c.753 0 6.317-.043 9.862-1.407a2.4 2.4 0 0 0 1.451-1.636c.284-1.07.611-3.033.611-6.295s-.327-5.225-.61-6.294Zm-1.266 12.261a1.09 1.09 0 0 1-.655.742c-3.49 1.342-9.404 1.32-9.469 1.32-.066 0-5.978.022-9.47-1.32a1.09 1.09 0 0 1-.654-.742c-.261-1.003-.567-2.847-.567-5.967 0-3.12.306-4.963.567-5.967a1.09 1.09 0 0 1 .655-.742c3.49-1.342 9.404-1.32 9.469-1.32.066 0 5.978-.022 9.47 1.32a1.092 1.092 0 0 1 .654.742c.262 1.004.567 2.847.567 5.967 0 3.12-.305 4.964-.567 5.967Z" fill="#666"/></svg><svg id="icon-tg" viewBox="0 0 29 22"><path fill-rule="evenodd" clip-rule="evenodd" d="M23.96 3.153c.18.15.265.382.227.611l-2.626 15.757a.657.657 0 0 1-1.012.439l-7.878-5.253a.657.657 0 0 1-.149-.956l2.611-3.263-4.36 2.906a.657.657 0 0 1-.658.041L4.863 10.81a.657.657 0 0 1 .073-1.205l18.383-6.566a.657.657 0 0 1 .642.115Zm-17.134 7.17 3.536 1.768 7.561-5.041a.656.656 0 0 1 .877.956l-4.805 6.006 6.438 4.292L22.708 4.65 6.826 10.323Z" fill="#666"/></svg><svg id="icon-footer-academy" viewBox="0 0 27 34" fill="currentColor"><g clip-path="url(#clip0_87438_341)"><path d="M13.643.016 13.5 0 0 1.407v24.606L13.5 34 27 26.013V1.407L13.643.016Zm11.591 25L13.5 31.956 1.766 25.015V14.93l11.685 6.916.02 1.253-8.017-4.743-.011 1.225 8.046 4.809.02 1.286-8.045-4.758-.01 1.226L13.5 26.95l8.124-4.833V16.91l3.62-2.15-.01 10.256Zm0-11.564-3.22 1.88-1.482.875-7.065-4.187-.011 1.225 6.04 3.573-.053.031-.13.076-.86.492-4.986-2.948-.011 1.225 3.936 2.328-.933.61-.021.012-2.971-1.742-.011 1.225 1.947 1.135-1.988 1.186-11.618-6.872 11.638-6.958 11.8 6.834Zm0-1.225L13.44 5.31 1.766 12.22V2.99L13.5 1.764 25.234 2.99v9.237Z"/></g><defs><clipPath id="clip0_87438_341"><path fill="#fff" d="M0 0h27v34H0z"/></clipPath></defs></svg><svg id="arrow" viewBox="0 0 24 12"><path stroke="#000" stroke-width="2" d="M0 6h18"/><path d="m24 6-6.75 5.196V.804L24 6Z"/></svg><svg id="arrow--hover" viewBox="0 0 32 12"><path stroke="#000" stroke-width="2" d="M0 6h26"/><path d="m32 6-6.75 5.196V.804L32 6Z"/></svg><svg id="arrows" viewBox="0 0 24 18"><path d="M8 0 0 9l8 9V0ZM24 9l-8-9v18l8-9Z" fill="#666"/></svg><svg id="arrows--big" viewBox="0 0 24 18"><path d="M8 0 0 9l8 9V0ZM24 9l-8-9v18l8-9Z" fill="#666"/></svg><svg id="gift-icon" viewBox="0 0 78 80"><path d="M64.016 34.713H14.03c-1.754 0-3.182-1.418-3.182-3.16v-9.469c0-1.742 1.428-3.16 3.182-3.16h49.984c1.754 0 3.18 1.418 3.18 3.16v9.469c0 1.742-1.426 3.16-3.18 3.16ZM14.03 21.346a.751.751 0 0 0-.744.738v9.469c0 .407.334.738.744.738h49.984c.41 0 .743-.331.743-.738v-9.469a.75.75 0 0 0-.743-.738H14.03Z" fill="#fff"/><path d="M57.045 67.149H20.999c-3.377 0-6.125-2.73-6.125-6.086V33.502c0-.669.546-1.212 1.219-1.212s1.219.543 1.219 1.212v27.56c0 2.021 1.654 3.665 3.687 3.665h36.046c2.032 0 3.686-1.644 3.686-3.664V33.502c0-.669.546-1.212 1.219-1.212.672 0 1.218.543 1.218 1.212v27.56c0 3.357-2.747 6.087-6.123 6.087Z" fill="#fff"/><path d="M39.023 67.149a1.215 1.215 0 0 1-1.22-1.211V33.502c0-.669.547-1.212 1.22-1.212.672 0 1.218.543 1.218 1.212v32.435c0 .67-.545 1.212-1.218 1.212ZM23.811 21.341c-3.814-2.054-5.238-6.808-3.173-10.6 2.064-3.789 6.848-5.204 10.665-3.154 5.814 3.13 8.954 11.86 9.084 12.23l-2.3.804c-.029-.083-2.961-8.222-7.944-10.904-2.635-1.415-5.937-.438-7.36 2.177-1.426 2.618-.444 5.9 2.19 7.318l-1.162 2.13Z" fill="#fff"/><path d="m54.231 21.341-1.16-2.13a5.376 5.376 0 0 0 2.622-3.207 5.327 5.327 0 0 0-.431-4.109 5.382 5.382 0 0 0-3.226-2.604 5.426 5.426 0 0 0-4.134.426c-4.982 2.682-7.915 10.82-7.944 10.903l-2.3-.803c.131-.37 3.27-9.101 9.084-12.23a7.859 7.859 0 0 1 5.99-.617 7.8 7.8 0 0 1 4.674 3.771 7.72 7.72 0 0 1 .623 5.953 7.788 7.788 0 0 1-3.798 4.647ZM61.95 50.931H16.093a1.215 1.215 0 0 1-1.219-1.21c0-.67.546-1.212 1.219-1.212H61.95c.672 0 1.218.543 1.218 1.211 0 .669-.545 1.211-1.218 1.211Z" fill="#fff"/></svg><svg id="gift-icon--big" viewBox="0 0 80 83"><path d="M65.657 35.83H14.391a3.266 3.266 0 0 1-3.263-3.263v-9.772a3.267 3.267 0 0 1 3.263-3.263h51.265a3.266 3.266 0 0 1 3.262 3.263v9.773a3.264 3.264 0 0 1-3.261 3.261ZM14.391 22.031a.773.773 0 0 0-.763.763v9.773c0 .42.342.762.763.762h51.265c.42 0 .762-.342.762-.762v-9.773a.772.772 0 0 0-.762-.763H14.391Z" fill="#fff"/><path d="M58.507 69.308h-36.97a6.289 6.289 0 0 1-6.281-6.282V34.579a1.25 1.25 0 0 1 2.5 0v28.447a3.786 3.786 0 0 0 3.781 3.782h36.97a3.785 3.785 0 0 0 3.781-3.782V34.579a1.25 1.25 0 0 1 2.5 0v28.447a6.288 6.288 0 0 1-6.28 6.282Z" fill="#fff"/><path d="M40.023 69.308c-.69 0-1.25-.56-1.25-1.25V34.579a1.25 1.25 0 0 1 2.5 0v33.478c0 .692-.56 1.25-1.25 1.25ZM24.422 22.028c-3.913-2.12-5.373-7.028-3.255-10.94 2.117-3.912 7.024-5.373 10.939-3.256 5.963 3.23 9.183 12.24 9.316 12.623l-2.358.829c-.03-.085-3.038-8.486-8.148-11.254a5.578 5.578 0 0 0-7.55 2.247 5.58 5.58 0 0 0 2.248 7.553l-1.192 2.198Z" fill="#fff"/><path d="m55.622 22.028-1.19-2.199a5.541 5.541 0 0 0 2.689-3.31 5.53 5.53 0 0 0-.442-4.241A5.527 5.527 0 0 0 53.37 9.59a5.533 5.533 0 0 0-4.24.44c-5.11 2.768-8.118 11.168-8.148 11.253l-2.359-.829c.134-.382 3.353-9.393 9.317-12.623a8.015 8.015 0 0 1 6.143-.637 8.01 8.01 0 0 1 4.794 3.893 8.013 8.013 0 0 1 .639 6.144 8.027 8.027 0 0 1-3.895 4.797ZM63.538 52.569H16.506a1.25 1.25 0 0 1 0-2.5h47.032a1.25 1.25 0 0 1 0 2.5Z" fill="#fff"/></svg><svg id="email-icon" viewBox="0 0 20 20" fill="none"><path d="M1.5 8.5v8h17v-8m-17-5h17v2l-8.5 6-8.5-6v-2Z" stroke="#000" stroke-linecap="round" stroke-linejoin="round"/></svg><svg id="phone-icon" viewBox="0 0 20 20" fill="none"><path d="M10 10h8.5m0 0L16 7.5m2.5 2.5L16 12.5m-7.5-10v5h-3v5h3v5H6c-1.5 0-2.5-1-2.5-2.5V5c0-1.5 1-2.5 2.5-2.5h2.5Z" stroke="#000" stroke-linecap="round" stroke-linejoin="round"/></svg><svg id="plus" viewBox="0 0 30 30" fill="none"><path stroke="#D3D3D3" stroke-width="2" d="M15 0v30M30 15H0"/></svg><svg id="plus--big" viewBox="0 0 60 60" fill="none"><path stroke="#D3D3D3" stroke-width="2" d="M31 0v60M60 31H0"/></svg></svg>